<svg xmlns="http://www.w3.org/2000/svg" xmlns:xlink="http://www.w3.org/1999/xlink" width="500" zoomAndPan="magnify" viewBox="0 0 375 374.999991" height="500" preserveAspectRatio="xMidYMid meet" version="1.0"><defs><clipPath id="2b9e395f8c"><path d="M 22 37.5 L 353 37.5 L 353 290 L 22 290 Z M 22 37.5 " clip-rule="nonzero"/></clipPath><clipPath id="9a60be40ad"><path d="M 10 43 L 365 43 L 365 334.5 L 10 334.5 Z M 10 43 " clip-rule="nonzero"/></clipPath></defs><g clip-path="url(#2b9e395f8c)"><path fill="#002e44" d="M 204.019531 289.921875 C 257.035156 267.582031 306.273438 237.832031 340.359375 178.382812 C 353.945312 154.691406 360.160156 127.503906 339.601562 104.957031 C 328.472656 92.75 313.503906 84.703125 297.289062 79.8125 L 289.847656 100.246094 C 303.945312 106.117188 316.148438 115.308594 323.488281 129.851562 C 354.585938 191.449219 246.253906 266.585938 204.019531 289.921875 Z M 170.542969 285.144531 C 154.71875 219.691406 119.648438 163.84375 56.449219 122.042969 C 45.0625 132.738281 33.679688 143.425781 22.289062 154.117188 C 95.902344 169.753906 142.476562 216.730469 170.542969 285.144531 Z M 167.03125 163.726562 L 223.964844 178.507812 L 300.042969 37.5 L 237.195312 210.109375 Z M 167.03125 163.726562 " fill-opacity="1" fill-rule="evenodd"/></g><g clip-path="url(#9a60be40ad)"><path fill="#00a3d8" d="M 52.808594 217.898438 C 42.71875 238.125 40.238281 264.15625 55.613281 282.371094 C 69.144531 298.394531 93.535156 305.460938 117.128906 307.386719 C 135.621094 308.898438 154.304688 307.863281 172.726562 304.605469 C 160.941406 217.605469 124.667969 144.667969 40.003906 99.523438 C 92.382812 80.871094 144.765625 62.214844 197.136719 43.5625 C 219.742188 61.808594 234.761719 82.734375 244.40625 105.371094 L 235.511719 121.847656 C 226.96875 103.03125 215.230469 85.199219 199.191406 69.496094 C 168.214844 81.550781 137.246094 93.609375 106.273438 105.667969 C 159.84375 162.496094 178.335938 230.195312 179.0625 303.402344 C 261.058594 286.589844 336.710938 225.925781 364.523438 147.972656 C 346.808594 264.550781 203.027344 344.464844 91.652344 333.496094 C 63.496094 330.722656 36.878906 320.25 22.984375 296.992188 C 7.230469 270.632812 19 236.890625 34.378906 212.175781 C 40.742188 213.757812 46.882812 215.667969 52.808594 217.898438 Z M 157.511719 295.382812 C 138.621094 235.175781 99.484375 191.921875 35.910156 169.132812 C 27.480469 177.777344 19.050781 186.421875 10.628906 195.0625 C 68 201.160156 118.382812 229.964844 157.511719 295.382812 Z M 258.964844 169.933594 C 260.445312 191.316406 259.417969 213.320312 257.257812 235.324219 C 257.03125 219.273438 256.007812 202.261719 253.453125 185.0625 Z M 258.964844 169.933594 " fill-opacity="1" fill-rule="evenodd"/></g></svg>